<svg xmlns="http://www.w3.org/2000/svg" viewBox="0 0 64 64" role="img" aria-label="Apple"><path fill="#111" d="M39.7 11.6c2.2-2.6 3.7-6.1 3.3-9.6-3.2.1-7.1 2.2-9.4 4.8-2.1 2.4-3.9 5.9-3.4 9.3 3.6.3 7.3-1.8 9.5-4.5ZM50.6 33.8c0-8.1 6.6-12 6.9-12.2-3.8-5.5-9.6-6.3-11.7-6.4-5-.5-9.7 2.9-12.2 2.9s-6.4-2.8-10.5-2.7c-5.4.1-10.4 3.1-13.2 7.9-5.6 9.7-1.4 24.1 4 31.8 2.6 3.7 5.8 7.9 9.9 7.8 3.9-.2 5.4-2.5 10.2-2.5s6.2 2.5 10.3 2.4c4.3-.1 7-3.8 9.6-7.6 3-4.4 4.2-8.7 4.3-8.9-.1-.1-8.2-3.1-8.3-12.5Z"/></svg>